# xmcd
#
# Track frame offsets:
#	150
#	43036
#	71224
#	84031
#	110044
#	125412
#	151023
#	172091
#	190711
#	207576
#	227913
#	251812
#	267559
#	286374
#	308169
#	328474
#
# Disc length: 4630 seconds
#
# Revision: 0
# Processed by: cddbd v1.5.2PL0 Copyright (c) Steve Scherf et al.
# Submitted via: EZCDAudioConverter 2.1.7.1
#
DISCID=f4121410
DTITLE=V/A - PZYK Volume 2 1/2
DYEAR=1900
DGENRE=
TTITLE0=Saddar Bazaar - Mi'Rifa (Return)
TTITLE1=Vuelveteloca - Canódromo
TTITLE2=Dungen - Häxan
TTITLE3=The Ganjas - Cuadro Desierto
TTITLE4=The Stairs - Skin Up For Me Baby [Live At The Kazimier, 2015]
TTITLE5=Cool Ghouls - Time Machine
TTITLE6=Kikagaku Moyo - Kogarashi
TTITLE7=10,000 Russos - Sand Bull
TTITLE8=Eagulls - Velvet
TTITLE9=Man Of Moon - Voices
TTITLE10=Super Furry Animals - Bing Bong
TTITLE11=Pure Joy - Terrorize
TTITLE12=The Moonlandingz - Psych Ersatz
TTITLE13=Flowers Must Die - Fanken
TTITLE14=Gnoomes - Oomgnes
TTITLE15=Chuck Johnson - Undergrove
EXTD=
EXTT0=
EXTT1=
EXTT2=
EXTT3=
EXTT4=
EXTT5=
EXTT6=
EXTT7=
EXTT8=
EXTT9=
EXTT10=
EXTT11=
EXTT12=
EXTT13=
EXTT14=
EXTT15=
PLAYORDER=
